<svg width="24" height="24" viewBox="0 0 24 24" fill="none" xmlns="http://www.w3.org/2000/svg">
<path d="M21.2609 13.1667C21.0012 15.2228 20.0649 17.1341 18.5995 18.5996C17.134 20.065 15.2227 21.0013 13.1666 21.261V23.6667H10.8333V21.261C8.77713 21.0013 6.86581 20.065 5.40036 18.5996C3.93491 17.1341 2.9986 15.2228 2.73892 13.1667H0.333252V10.8333H2.73892C2.9986 8.77721 3.93491 6.86589 5.40036 5.40044C6.86581 3.93499 8.77713 2.99868 10.8333 2.739V0.333332H13.1666V2.739C15.2227 2.99868 17.134 3.93499 18.5995 5.40044C20.0649 6.86589 21.0012 8.77721 21.2609 10.8333H23.6666V13.1667H21.2609ZM11.9999 19C13.8564 19 15.6369 18.2625 16.9497 16.9497C18.2624 15.637 18.9999 13.8565 18.9999 12C18.9999 10.1435 18.2624 8.36301 16.9497 7.05025C15.6369 5.7375 13.8564 5 11.9999 5C10.1434 5 8.36293 5.7375 7.05017 7.05025C5.73742 8.36301 4.99992 10.1435 4.99992 12C4.99992 13.8565 5.73742 15.637 7.05017 16.9497C8.36293 18.2625 10.1434 19 11.9999 19ZM11.9999 15.5C12.9282 15.5 13.8184 15.1312 14.4748 14.4749C15.1312 13.8185 15.4999 12.9283 15.4999 12C15.4999 11.0717 15.1312 10.1815 14.4748 9.52512C13.8184 8.86875 12.9282 8.5 11.9999 8.5C11.0717 8.5 10.1814 8.86875 9.52504 9.52512C8.86867 10.1815 8.49992 11.0717 8.49992 12C8.49992 12.9283 8.86867 13.8185 9.52504 14.4749C10.1814 15.1312 11.0717 15.5 11.9999 15.5Z" fill="#00D09E"/>
</svg>
