<svg width="32" height="49" viewBox="0 0 32 49" fill="none" xmlns="http://www.w3.org/2000/svg">
<path id="Vector" d="M30.515 21.7781L30.5148 21.7785L19.1423 46.4025C19.1419 46.4034 19.1415 46.4042 19.1411 46.4051C18.849 47.0173 18.4202 47.4944 17.8477 47.8461C17.2679 48.2021 16.655 48.3767 16 48.3767C15.345 48.3767 14.7321 48.2021 14.1523 47.8461C13.5815 47.4955 13.1653 47.0212 12.8941 46.4136L12.8941 46.4136L12.8912 46.4073L1.48498 21.7781C0.837843 20.3803 0.5 18.5599 0.5 16.2922C0.5 11.9247 2.01192 8.21116 5.04424 5.12346C8.07626 2.03605 11.719 0.5 16 0.5C20.281 0.5 23.9237 2.03605 26.9558 5.12346C29.9881 8.21116 31.5 11.9247 31.5 16.2922C31.5 18.5599 31.1622 20.3803 30.515 21.7781ZM24.5 16.2922C24.5 13.9138 23.6682 11.8677 22.013 10.1823C20.3575 8.49662 18.344 7.64612 16 7.64612C13.656 7.64612 11.6425 8.49662 9.98701 10.1823C8.33183 11.8677 7.5 13.9138 7.5 16.2922C7.5 18.6707 8.33183 20.7167 9.98701 22.4021C11.6425 24.0879 13.656 24.9384 16 24.9384C18.344 24.9384 20.3575 24.0879 22.013 22.4021C23.6682 20.7167 24.5 18.6707 24.5 16.2922Z" fill="#F2771E" stroke="black"/>
</svg>
