<svg width="20" height="20" viewBox="0 0 20 20" fill="none" xmlns="http://www.w3.org/2000/svg">
<path d="M16.0672 15.1827C16.1252 15.2407 16.1713 15.3097 16.2027 15.3855C16.2342 15.4614 16.2503 15.5427 16.2503 15.6249C16.2503 15.707 16.2342 15.7883 16.2027 15.8642C16.1713 15.94 16.1252 16.009 16.0672 16.067C16.0091 16.1251 15.9402 16.1712 15.8643 16.2026C15.7884 16.234 15.7071 16.2502 15.625 16.2502C15.5429 16.2502 15.4615 16.234 15.3857 16.2026C15.3098 16.1712 15.2409 16.1251 15.1828 16.067L9.99998 10.8835L4.81717 16.067C4.69989 16.1843 4.54083 16.2502 4.37498 16.2502C4.20913 16.2502 4.05007 16.1843 3.93279 16.067C3.81552 15.9498 3.74963 15.7907 3.74963 15.6249C3.74963 15.459 3.81552 15.2999 3.93279 15.1827L9.11639 9.99986L3.93279 4.81705C3.81552 4.69977 3.74963 4.54071 3.74963 4.37486C3.74963 4.20901 3.81552 4.04995 3.93279 3.93267C4.05007 3.8154 4.20913 3.74951 4.37498 3.74951C4.54083 3.74951 4.69989 3.8154 4.81717 3.93267L9.99998 9.11627L15.1828 3.93267C15.3001 3.8154 15.4591 3.74951 15.625 3.74951C15.7908 3.74951 15.9499 3.8154 16.0672 3.93267C16.1844 4.04995 16.2503 4.20901 16.2503 4.37486C16.2503 4.54071 16.1844 4.69977 16.0672 4.81705L10.8836 9.99986L16.0672 15.1827Z" fill="black"/>
</svg>
